<?xml version="1.0" encoding="UTF-8" standalone="no"?>
<!-- Created with Inkscape (http://www.inkscape.org/) -->

<svg
   xmlns:dc="http://purl.org/dc/elements/1.1/"
   xmlns:cc="http://creativecommons.org/ns#"
   xmlns:rdf="http://www.w3.org/1999/02/22-rdf-syntax-ns#"
   xmlns:svg="http://www.w3.org/2000/svg"
   xmlns="http://www.w3.org/2000/svg"
   xmlns:sodipodi="http://sodipodi.sourceforge.net/DTD/sodipodi-0.dtd"
   xmlns:inkscape="http://www.inkscape.org/namespaces/inkscape"
   width="4251.9683"
   height="2480.3149"
   id="svg2"
   version="1.1"
   inkscape:version="0.48.2 r9819"
   sodipodi:docname="Zeichnung.svg">
  <defs
     id="defs4" />
  <sodipodi:namedview
     id="base"
     pagecolor="#ffffff"
     bordercolor="#666666"
     borderopacity="1.0"
     inkscape:pageopacity="0.0"
     inkscape:pageshadow="2"
     inkscape:zoom="0.15861561"
     inkscape:cx="955.13742"
     inkscape:cy="1397.3669"
     inkscape:document-units="px"
     inkscape:current-layer="layer1"
     showgrid="false"
     units="cm"
     inkscape:snap-grids="true"
     inkscape:snap-global="false"
     inkscape:window-width="1366"
     inkscape:window-height="705"
     inkscape:window-x="-4"
     inkscape:window-y="-4"
     inkscape:window-maximized="1">
    <inkscape:grid
       type="xygrid"
       id="grid3029"
       empspacing="5"
       visible="true"
       enabled="true"
       snapvisiblegridlinesonly="true" />
  </sodipodi:namedview>
  <metadata
     id="metadata7">
    <rdf:RDF>
      <cc:Work
         rdf:about="">
        <dc:format>image/svg+xml</dc:format>
        <dc:type
           rdf:resource="http://purl.org/dc/dcmitype/StillImage" />
        <dc:title />
      </cc:Work>
    </rdf:RDF>
  </metadata>
  <g
     inkscape:label="Ebene 1"
     inkscape:groupmode="layer"
     id="layer1"
     transform="translate(0,1427.9524)">
    <path
       style="fill:none;stroke:#000000;stroke-width:88.58267975;stroke-linecap:butt;stroke-linejoin:miter;stroke-miterlimit:4;stroke-opacity:1;stroke-dasharray:none"
       d="M 3857.3816,898.07801 C 3759.3047,357.30684 2941.8868,332.14724 2514.185,328.63537 2134.341,322.37196 1453.5724,310.50972 1122.1619,361.21092 712.04553,423.95302 530.91348,649.91338 530.91348,649.91338 367.50239,840.93102 105.91903,1461.4416 751.3187,2003.5166 c 240.56762,202.0542 347.6937,161.9379 691.4194,152.6283 326.8237,-46.6891 484.382,-122.244 419.8594,-386.034 -48.553,-198.5008 -394.9004,-270.1636 -508.3102,-225.8048 -200.6082,78.4654 -387.76837,-193.9555 -371.51503,-347.881 41.60783,-394.04285 305.24863,-404.97232 788.49593,-392.17851 82.6141,2.18719 597.9004,17.87072 814.7357,39.28074 657.0295,24.31937 822.0437,206.07017 849.0108,371.44177 51.6251,316.583 -112.7308,643.8284 -698.3066,235.6588 -530.5605,-369.8218 -744.9056,289.9243 -207.7521,516.9135 399.0135,168.6143 434.8749,221.4151 865.6399,140.2603 51.1978,-28.4056 257.2288,-138.6633 330.1836,-196.1435 234.4901,-184.7521 310.4356,-119.0946 132.6021,-1013.58019 z"
       inkscape:connector-curvature="0"
       transform="translate(0,-1427.9524)"
       sodipodi:nodetypes="ccscscsssscssscsc"
       id="path8" />
  </g>
</svg>
